<mxfile host="65bd71144e">
    <diagram id="ksNDRFpG4k2WZB_YVPAA" name="Page-1">
        <mxGraphModel dx="1156" dy="533" grid="1" gridSize="10" guides="1" tooltips="1" connect="1" arrows="1" fold="1" page="1" pageScale="1" pageWidth="850" pageHeight="1100" math="0" shadow="0">
            <root>
                <mxCell id="0"/>
                <mxCell id="1" parent="0"/>
                <mxCell id="2" value="" style="rounded=1;whiteSpace=wrap;html=1;perimeterSpacing=9;argSize=1;arcSize=25;absoluteArcSize=1;fillColor=#f5f5f5;fontColor=#333333;strokeColor=#666666;" parent="1" vertex="1">
                    <mxGeometry x="190" y="60" width="470" height="370" as="geometry"/>
                </mxCell>
                <mxCell id="3" value="New User/Manager Data" style="text;html=1;strokeColor=none;fillColor=none;align=left;verticalAlign=middle;whiteSpace=wrap;rounded=0;fontSize=25;fontStyle=1;fontColor=#000000;" parent="1" vertex="1">
                    <mxGeometry x="210" y="80" width="410" height="30" as="geometry"/>
                </mxCell>
                <mxCell id="5" value="" style="endArrow=none;html=1;fontSize=25;fontColor=#000000;strokeColor=#808080;" parent="1" edge="1">
                    <mxGeometry width="50" height="50" relative="1" as="geometry">
                        <mxPoint x="190" y="130" as="sourcePoint"/>
                        <mxPoint x="660" y="130" as="targetPoint"/>
                        <Array as="points">
                            <mxPoint x="420" y="130"/>
                        </Array>
                    </mxGeometry>
                </mxCell>
                <mxCell id="7" value="&lt;span style=&quot;font-size: 17px;&quot;&gt;&lt;font style=&quot;font-size: 17px;&quot;&gt;Username&lt;br&gt;&lt;/font&gt;&lt;/span&gt;" style="text;html=1;strokeColor=none;fillColor=none;align=left;verticalAlign=middle;whiteSpace=wrap;rounded=0;fontSize=17;fontStyle=0;fontColor=#5f5d5d;" parent="1" vertex="1">
                    <mxGeometry x="210" y="140" width="187.75" height="40" as="geometry"/>
                </mxCell>
                <mxCell id="8" value="&lt;span style=&quot;font-size: 17px;&quot;&gt;&lt;font style=&quot;font-size: 17px;&quot;&gt;Password&lt;br&gt;&lt;/font&gt;&lt;/span&gt;" style="text;html=1;strokeColor=none;fillColor=none;align=left;verticalAlign=middle;whiteSpace=wrap;rounded=0;fontSize=17;fontStyle=0;fontColor=#5f5d5d;" parent="1" vertex="1">
                    <mxGeometry x="210" y="210" width="187.75" height="40" as="geometry"/>
                </mxCell>
                <mxCell id="9" value="" style="rounded=1;whiteSpace=wrap;html=1;fontSize=17;fontColor=#333333;fillColor=#f5f5f5;strokeColor=#B3B3B3;" parent="1" vertex="1">
                    <mxGeometry x="210.19" y="170" width="409.81" height="30" as="geometry"/>
                </mxCell>
                <mxCell id="10" value="" style="rounded=1;whiteSpace=wrap;html=1;fontSize=17;fontColor=#333333;fillColor=#f5f5f5;strokeColor=#B3B3B3;" parent="1" vertex="1">
                    <mxGeometry x="210" y="240" width="410" height="30" as="geometry"/>
                </mxCell>
                <mxCell id="11" value="&lt;span style=&quot;font-size: 17px;&quot;&gt;&lt;font style=&quot;font-size: 17px;&quot;&gt;Password Confirm&lt;br&gt;&lt;/font&gt;&lt;/span&gt;" style="text;html=1;strokeColor=none;fillColor=none;align=left;verticalAlign=middle;whiteSpace=wrap;rounded=0;fontSize=17;fontStyle=0;fontColor=#5f5d5d;" parent="1" vertex="1">
                    <mxGeometry x="210.19" y="290" width="187.75" height="40" as="geometry"/>
                </mxCell>
                <mxCell id="12" value="" style="rounded=1;whiteSpace=wrap;html=1;fontSize=17;fontColor=#333333;fillColor=#f5f5f5;strokeColor=#B3B3B3;" parent="1" vertex="1">
                    <mxGeometry x="210.19" y="320" width="410" height="30" as="geometry"/>
                </mxCell>
                <mxCell id="13" value="Cancel" style="rounded=1;whiteSpace=wrap;html=1;strokeColor=#666666;fontSize=16;fontColor=#FFFFFF;fillColor=#666666;" parent="1" vertex="1">
                    <mxGeometry x="220" y="370" width="70" height="40" as="geometry"/>
                </mxCell>
                <mxCell id="14" value="Confirm" style="rounded=1;whiteSpace=wrap;html=1;strokeColor=#666666;fontSize=16;fontColor=#FFFFFF;fillColor=#3333FF;" parent="1" vertex="1">
                    <mxGeometry x="300" y="370" width="80" height="40" as="geometry"/>
                </mxCell>
            </root>
        </mxGraphModel>
    </diagram>
</mxfile>